<svg xmlns="http://www.w3.org/2000/svg" fill="none" viewBox="0 0 24 24" id="maison">
  <g transform="scale(1) translate(0, 0)">
    <path d="m23.71 11.29 -3.14 -3.13A0.29 0.29 0 0 1 20.5 8V2a1 1 0 0 0 -1 -1h-3a1 1 0 0 0 -1 1v0.48a0.25 0.25 0 0 1 -0.15 0.23 0.26 0.26 0 0 1 -0.28 0L12.71 0.29a1 1 0 0 0 -1.42 0l-11 11a1 1 0 0 0 -0.21 1.09A1 1 0 0 0 1 13h1.25a0.25 0.25 0 0 1 0.25 0.25V23a1 1 0 0 0 1 1h17a1 1 0 0 0 1 -1v-9.75a0.25 0.25 0 0 1 0.25 -0.25H23a1 1 0 0 0 0.92 -0.62 1 1 0 0 0 -0.21 -1.09Z" fill="currentColor"></path>
  </g>
</svg>
