<svg xmlns="http://www.w3.org/2000/svg" fill="none" viewBox="0 0 24 24" id="pluie legere">
  <g transform="matrix(0.75, 0, 0, 0.75, -427.5, -582.75)">
    <path fill="currentColor" d="M593,803 C592.447,803 592,803.448 592,804 C592,804.553 592.447,805 593,805 C593.553,805 594,804.553 594,804 C594,803.448 593.553,803 593,803 L593,803 Z M593.067,782.029 C591.599,779.053 588.543,777 585,777 C580.251,777 576.37,780.682 576.033,785.345 C572.542,786.341 570,789.39 570,793 C570,797.26 573.54,800.755 578,801 L592,801 C594.34,801 596.5,800.2 598.3,798.8 C600.6,797 602,794.4 602,791.5 C602,786.445 598.049,782.324 593.067,782.029 L593.067,782.029 Z M589,807 C588.447,807 588,807.448 588,808 C588,808.553 588.447,809 589,809 C589.553,809 590,808.553 590,808 C590,807.448 589.553,807 589,807 L589,807 Z M587,803 C586.447,803 586,803.448 586,804 C586,804.553 586.447,805 587,805 C587.553,805 588,804.553 588,804 C588,803.448 587.553,803 587,803 L587,803 Z M581,803 C580.447,803 580,803.448 580,804 C580,804.553 580.447,805 581,805 C581.553,805 582,804.553 582,804 C582,803.448 581.553,803 581,803 L581,803 Z M583,807 C582.447,807 582,807.448 582,808 C582,808.553 582.447,809 583,809 C583.553,809 584,808.553 584,808 C584,807.448 583.553,807 583,807 L583,807 Z"/>
  </g>
</svg>
